<?xml version="1.0" encoding="UTF-8" standalone="no"?>
<!-- Created with Inkscape (http://www.inkscape.org/) -->

<svg
   width="210mm"
   height="297mm"
   viewBox="0 0 210 297"
   version="1.1"
   id="svg6984"
   xml:space="preserve"
   preserveAspectRatio="none"
   inkscape:version="1.2.2 (b0a84865, 2022-12-01)"
   sodipodi:docname="Background.svg"
   xmlns:inkscape="http://www.inkscape.org/namespaces/inkscape"
   xmlns:sodipodi="http://sodipodi.sourceforge.net/DTD/sodipodi-0.dtd"
   xmlns="http://www.w3.org/2000/svg"
   xmlns:svg="http://www.w3.org/2000/svg"><sodipodi:namedview
     id="namedview6986"
     pagecolor="#ffffff"
     bordercolor="#000000"
     borderopacity="0.24705882"
     inkscape:showpageshadow="false"
     inkscape:pageopacity="0.0"
     inkscape:pagecheckerboard="false"
     inkscape:deskcolor="#d1d1d1"
     inkscape:document-units="mm"
     showgrid="false"
     inkscape:zoom="0.4204826"
     inkscape:cx="543.4232"
     inkscape:cy="360.30028"
     inkscape:window-width="1440"
     inkscape:window-height="793"
     inkscape:window-x="0"
     inkscape:window-y="25"
     inkscape:window-maximized="0"
     inkscape:current-layer="layer1"
     showborder="false"
     borderlayer="false" /><defs
     id="defs6981"><inkscape:path-effect
       effect="bspline"
       id="path-effect441"
       is_visible="true"
       lpeversion="1"
       weight="33.333333"
       steps="2"
       helper_size="0"
       apply_no_weight="true"
       apply_with_weight="true"
       only_selected="false" /><inkscape:path-effect
       effect="bspline"
       id="path-effect441-0"
       is_visible="true"
       lpeversion="1"
       weight="33.333333"
       steps="2"
       helper_size="0"
       apply_no_weight="true"
       apply_with_weight="true"
       only_selected="false" /><inkscape:path-effect
       effect="bspline"
       id="path-effect441-4"
       is_visible="true"
       lpeversion="1"
       weight="33.333333"
       steps="2"
       helper_size="0"
       apply_no_weight="true"
       apply_with_weight="true"
       only_selected="false" /><inkscape:path-effect
       effect="bspline"
       id="path-effect441-3"
       is_visible="true"
       lpeversion="1"
       weight="33.333333"
       steps="2"
       helper_size="0"
       apply_no_weight="true"
       apply_with_weight="true"
       only_selected="false" /><inkscape:path-effect
       effect="bspline"
       id="path-effect441-2"
       is_visible="true"
       lpeversion="1"
       weight="33.333333"
       steps="2"
       helper_size="0"
       apply_no_weight="true"
       apply_with_weight="true"
       only_selected="false" /><inkscape:path-effect
       effect="bspline"
       id="path-effect441-37"
       is_visible="true"
       lpeversion="1"
       weight="33.333333"
       steps="2"
       helper_size="0"
       apply_no_weight="true"
       apply_with_weight="true"
       only_selected="false" /><inkscape:path-effect
       effect="bspline"
       id="path-effect441-23"
       is_visible="true"
       lpeversion="1"
       weight="33.333333"
       steps="2"
       helper_size="0"
       apply_no_weight="true"
       apply_with_weight="true"
       only_selected="false" /><inkscape:path-effect
       effect="bspline"
       id="path-effect441-7"
       is_visible="true"
       lpeversion="1"
       weight="33.333333"
       steps="2"
       helper_size="0"
       apply_no_weight="true"
       apply_with_weight="true"
       only_selected="false" /><inkscape:path-effect
       effect="bspline"
       id="path-effect441-39"
       is_visible="true"
       lpeversion="1"
       weight="33.333333"
       steps="2"
       helper_size="0"
       apply_no_weight="true"
       apply_with_weight="true"
       only_selected="false" /></defs><g
     inkscape:label="Layer 1"
     inkscape:groupmode="layer"
     id="layer1"><path
       style="fill:#1e211d;fill-opacity:1;stroke-width:0.999998"
       d="M 0.79705065,284.83415 V 272.04819 H 10.934011 21.070961 l 0.56545,-0.86037 c 0.88108,-1.34061 1.2414,-1.9057 5.71735,-8.96713 2.311718,-3.64703 4.611134,-7.25983 5.109813,-8.02838 l 0.906684,-1.39741 -9.561617,-0.0741 -9.56163,-0.0741 2.71644,-3.41949 c 1.49404,-1.88073 3.66069,-4.61652 4.81477,-6.07955 1.15408,-1.46301 2.28674,-2.89706 2.51701,-3.18679 0.23028,-0.28971 0.64039,-0.81545 0.91137,-1.16833 l 0.4927,-0.64156 h 8.462366 8.462374 l 2.192179,-3.44647 c 1.205704,-1.89555 2.705653,-4.2539 3.333224,-5.24074 0.62757,-0.98686 1.284452,-2.01174 1.459731,-2.27749 l 0.318692,-0.48326 h -7.752832 -7.752834 l -0.667387,0.83721 c -0.367062,0.46052 -0.855788,1.08073 -1.08606,1.37817 -0.230272,0.29749 -0.960338,1.21491 -1.62237,2.03875 -0.66203,0.82381 -2.189345,2.74597 -3.394033,4.27145 l -2.19034,2.77357 h -8.4074 c -4.62406,0 -8.4073903,-0.0266 -8.4073903,-0.0587 0,-0.0519 5.9228503,-6.29502 8.8301003,-9.30771 0.59182,-0.61328 1.23752,-1.29831 1.43491,-1.52224 l 0.35889,-0.40723 -7.72013,-0.001 -7.7201203,-0.001 -1.28141,1.13749 c -0.70477,0.62563 -1.38738,1.23546 -1.51691,1.35514 l -0.23550005,0.21764 V 114.84252 0.27214593 h 51.65414035 51.654149 2.09337 51.81116 51.81114 V 117.07319 233.87426 l -0.34018,-0.3657 c -0.18708,-0.20111 -1.0938,-1.15786 -2.01487,-2.1261 -0.92111,-0.96823 -2.29869,-2.41773 -3.06136,-3.22109 l -1.38665,-1.46068 -7.70693,0.0383 -7.70692,0.0382 1.7144,2.18111 c 0.94293,1.19961 1.81373,2.30351 1.9351,2.45314 0.12139,0.14958 0.56632,0.70686 0.98876,1.23834 0.42246,0.53152 1.45359,1.82689 2.2914,2.87862 0.8378,1.05174 1.62821,2.05528 1.75643,2.23011 l 0.23314,0.31789 -8.43206,-0.0389 -8.43207,-0.0389 0.19959,0.36034 c 0.10966,0.19819 0.59638,0.98146 1.08141,1.74054 0.48502,0.75911 1.13898,1.78526 1.45324,2.28037 0.31424,0.49508 0.74265,1.16776 0.95203,1.49485 0.20939,0.32708 1.08222,1.69861 1.93963,3.04782 0.85742,1.34922 1.60652,2.52582 1.66467,2.61468 0.0582,0.0888 0.45899,0.71865 0.89074,1.39951 0.43176,0.6809 0.8439,1.32262 0.91586,1.42608 0.072,0.10344 0.13088,0.22633 0.13088,0.27305 0,0.0466 -4.32153,0.0839 -9.60338,0.0822 l -9.60337,-0.003 -2.40739,-5.05483 c -1.32407,-2.78016 -2.86544,-6.00701 -3.42529,-7.17076 -0.55983,-1.16376 -1.01907,-2.16611 -1.02051,-2.22747 -0.001,-0.0613 3.76938,-0.11129 8.37961,-0.11129 5.02534,0 8.36825,-0.0546 8.34734,-0.13608 -0.0193,-0.0747 -0.62364,-1.05969 -1.34324,-2.1886 -0.71959,-1.1289 -1.80293,-2.82797 -2.40739,-3.77574 -0.60446,-0.94775 -1.61573,-2.53866 -2.24727,-3.53537 l -1.14822,-1.8119 h -7.73119 c -4.25214,0 -7.71548,0.0516 -7.69629,0.11419 0.0193,0.0627 1.1928,2.55499 2.60799,5.53807 1.4152,2.98315 2.60002,5.49077 2.63291,5.57252 0.0397,0.0987 -2.7676,0.13557 -8.35607,0.1097 -4.62871,-0.0214 -8.41586,-0.003 -8.41586,0.0367 0,0.0416 0.54663,1.79849 1.21473,3.90443 1.64282,5.17838 1.7129,5.39866 2.63759,8.28917 l 0.80854,2.52746 9.62799,0.0404 9.628,0.0403 0.32949,0.70296 c 0.40943,0.87341 3.89196,8.21034 6.59183,13.88748 1.11534,2.34526 2.02788,4.30218 2.02788,4.34871 0,0.0465 -4.96916,0.0845 -11.04257,0.0845 -6.07343,0 -11.04258,0.0371 -11.04258,0.0823 0,0.0657 2.2553,7.21278 3.63322,11.51408 0.14408,0.44972 0.88871,2.79134 1.65476,5.20357 0.76601,2.41224 1.70299,5.3524 2.08216,6.53371 0.37915,1.18128 0.68936,2.20183 0.68936,2.26783 0,0.066 -5.92001,0.10286 -13.15558,0.0822 l -13.15561,-0.0379 -1.32005,-8.2514 c -1.24862,-7.80478 -2.72275,-17.00098 -2.72275,-17.12678 0,-0.0657 4.99271,-0.11939 11.09491,-0.11939 6.10221,0 11.09491,-0.0568 11.09491,-0.1259 0,-0.0691 -0.067,-0.32011 -0.14887,-0.55754 -0.0819,-0.23741 -1.35865,-4.24518 -2.83727,-8.90612 -1.4786,-4.66092 -2.77871,-8.75875 -2.88912,-9.10626 l -0.20077,-0.63184 h -9.62493 -9.62495 l -0.056,-0.33456 c -0.0308,-0.18392 -0.24112,-1.50532 -0.46751,-2.93628 -0.22637,-1.431 -0.72021,-4.52405 -1.09742,-6.87348 -0.37723,-2.34943 -0.68585,-4.30637 -0.68585,-4.34872 0,-0.0427 3.79163,-0.0769 8.42585,-0.0769 4.63422,0 8.42586,-0.051 8.42586,-0.11334 0,-0.0944 -1.98002,-6.44971 -2.30388,-7.39479 -0.0561,-0.16344 -0.35672,-1.10018 -0.66818,-2.08144 l -0.56629,-1.78408 -7.74474,-0.0382 -7.74475,-0.0384 0.0939,0.55849 c 0.33042,1.96688 1.66363,10.54053 1.66363,10.69858 0,0.15645 -1.604,0.19273 -8.47919,0.19273 h -8.47918 l 0.0271,7.24786 0.0271,7.24785 9.57253,0.038 c 5.2649,0.0212 9.60577,0.0876 9.64638,0.14875 0.0407,0.0611 0.50539,2.85375 1.0328,6.20635 0.52742,3.35261 1.19104,7.56218 1.4747,9.35464 0.28365,1.79244 0.51575,3.3145 0.51575,3.38232 0,0.0678 -4.99272,0.12318 -11.09493,0.12318 H 111.2227 c 0,0 -0.0316,11.02976 -0.0206,16.24265 l 0.0206,9.47796 H 98.023198 84.823553 l 0.07163,-0.40541 c 0.07169,-0.40571 1.35605,-8.54184 2.165609,-13.7186 0.236563,-1.51276 1.089227,-6.86018 1.402253,-8.8984 l 0.391533,-2.54948 h 11.131784 11.131788 v -9.66384 -9.6638 h -9.5772 c -7.594876,0 -9.576105,-0.0385 -9.571823,-0.186 0.0024,-0.10231 0.510181,-3.36373 1.127141,-7.24783 l 1.12176,-7.06203 8.450062,-0.0383 8.45006,-0.038 v -5.72406 -5.72399 l -7.7186,0.0382 -7.718595,0.0383 -0.28688,1.78409 c -0.157792,0.98125 -0.552663,3.45667 -0.877481,5.50095 -0.324819,2.04426 -0.621794,3.76626 -0.659947,3.82672 -0.06996,0.11084 -16.750134,0.171 -16.827791,0.0605 -0.02298,-0.0327 0.07332,-0.41887 0.21404,-0.85827 0.140706,-0.43943 0.925229,-2.90637 1.743378,-5.48217 0.818151,-2.57579 1.508737,-4.73384 1.534635,-4.79568 0.02593,-0.062 -3.447195,-0.0954 -7.717986,-0.0741 l -7.765067,0.0382 -1.172385,2.45312 c -0.644804,1.34923 -1.858546,3.89152 -2.697194,5.6496 l -1.524819,3.19651 -8.477198,0.038 -8.477194,0.0382 -1.503743,2.33576 c -0.827062,1.28467 -1.671429,2.60562 -1.876372,2.93545 -0.204942,0.32981 -1.331752,2.10499 -2.504023,3.94482 -1.172263,1.83985 -2.40584,3.77662 -2.741275,4.30395 -0.335438,0.52736 -0.609882,1.01203 -0.609882,1.07708 0,0.0653 4.287996,0.1354 9.528879,0.15644 l 9.528873,0.038 -2.271695,4.75754 c -1.249435,2.61668 -2.928357,6.12911 -3.730934,7.8054 -0.802581,1.67629 -1.814729,3.80048 -2.249221,4.72039 l -0.789984,1.6726 H 32.352111 21.234531 l -1.66205,2.62408 c -0.91413,1.44328 -1.71045,2.69774 -1.76961,2.78766 -0.15443,0.23478 -5.95669,9.36502 -6.64359,10.45413 -0.31662,0.502 -1.8474003,2.92117 -3.4017403,5.37594 l -2.82606,4.46315 -2.06721,0.007 -2.06722005,0.007 z M 31.779067,297.53456 c 0,-0.0774 4.793899,-10.20581 10.0223,-21.17485 l 2.019666,-4.2372 11.164002,-0.0741 11.164006,-0.0741 0.853089,-2.67613 c 0.469198,-1.47185 1.374234,-4.31526 2.011196,-6.31863 0.63696,-2.00337 1.610326,-5.06263 2.163039,-6.79831 0.552711,-1.73568 1.004929,-3.2243 1.004929,-3.30798 0,-0.10264 -3.114774,-0.15227 -9.579916,-0.15227 h -9.57992 L 53.687,251.34578 c 0.36605,-0.75641 1.348124,-2.81368 2.182385,-4.57173 0.834262,-1.75807 2.097558,-4.41747 2.807322,-5.90981 l 1.290485,-2.71328 h 8.462104 c 4.654154,0 8.462102,0.0277 8.462102,0.0611 0,0.0336 -0.239245,0.81965 -0.531659,1.74693 -0.581957,1.84538 -0.71743,2.27139 -2.663839,8.37623 -0.729984,2.28957 -1.351073,4.24719 -1.3802,4.35023 -0.04237,0.14993 1.848904,0.18693 9.45736,0.18432 5.230681,-10e-4 9.56148,-10e-4 9.624009,-10e-4 0.07188,10e-4 0.0047,0.67043 -0.183448,1.82279 -0.300336,1.84092 -1.027894,6.37868 -2.145336,13.38053 l -0.610969,3.82823 -11.116178,1.1e-4 -11.116179,1.3e-4 -0.203049,0.63186 c -0.111686,0.34753 -0.532488,1.66887 -0.935131,2.9363 -2.084709,6.56231 -4.224523,13.29469 -4.404824,13.85864 -0.112033,0.35039 -0.509393,1.6072 -0.883044,2.79286 -0.373657,1.1857 -0.831394,2.62412 -1.017193,3.19649 -0.185804,0.5724 -0.424557,1.32506 -0.530561,1.67258 l -0.192736,0.63187 H 44.918748 c -7.226827,-3e-5 -13.139681,-0.0385 -13.139681,-0.0857 z m 158.819553,-1.07004 c -0.51166,-1.09064 -1.07018,-2.26069 -4.48726,-9.40029 -2.86062,-5.97689 -3.61458,-7.5559 -5.37782,-11.26204 l -1.78599,-3.754 h 11.04064 c 6.60653,0 11.04062,-0.0549 11.04062,-0.13607 0,-0.11706 -3.11109,-5.07784 -6.06845,-9.67641 -0.4996,-0.77683 -2.0533,-3.21878 -3.45268,-5.4266 l -2.54439,-4.0142 9.60803,-0.038 9.60803,-0.038 0.79466,1.02159 0.79465,1.02161 0.0273,8.56866 0.0273,8.56864 h -4.30506 c -4.20302,0 -4.30165,0.007 -4.16146,0.2811 0.079,0.15476 0.96786,1.57106 1.97533,3.14759 1.00741,1.57656 2.87789,4.51087 4.15658,6.52069 l 2.32488,3.65431 0.003,6.05846 0.003,6.05845 -9.34169,-0.003 -9.34174,-0.003 -0.53898,-1.1489 z M 0.82230065,260.92557 l 0.0271,-8.06135 H 7.1715507 c 3.4771903,1.1e-4 6.3380203,0.0229 6.3574103,0.0505 0.0194,0.0276 -0.58112,0.81469 -1.33447,1.7492 -0.75335,0.93452 -1.47572,1.83291 -1.60527,1.99646 -0.12955,0.16344 -0.55802,0.69878 -0.9521703,1.18938 -0.39415,0.49062 -1.21584,1.52765 -1.82598,2.30447 -1.42881,1.81915 -3.25924,4.11501 -4.97296,6.23749 -0.74838,0.92686 -1.51418,1.88993 -1.70178,2.14015 l -0.34109005,0.45496 0.0271,-8.06131 z M 207.49167,251.34532 c -0.59385,-0.7564 -1.829,-2.31188 -2.74479,-3.45668 -0.91581,-1.14478 -2.14119,-2.68356 -2.72304,-3.4195 -1.08938,-1.37783 -4.00871,-5.04869 -4.65843,-5.85773 l -0.36636,-0.45616 6.41098,-0.001 6.41098,-10e-4 v 7.28505 7.28499 h -0.6248 -0.62481 l -1.07973,-1.37644 z M 0.79705065,242.09037 v -3.93986 H 4.5860607 c 2.25295,0 3.74871,0.0541 3.68959,0.13389 -0.10158,0.13691 -4.22093,4.47603 -6.24634,6.57961 -0.61753,0.64137 -1.14742005,1.16613 -1.17753005,1.16613 -0.0301,0 -0.0547,-1.77293 -0.0547,-3.93985 z"
       id="path8569"
       sodipodi:nodetypes="ccccssscccsssscccssscccsssscssssccccsccccccccccssscccssssccccsssssssssccsscssssccsssssssscccsssssssssscsssssssccccssssssscccsssccccssssscscccssscccccscscccccccsssssssccsscccsssssccssscccsssscccccscccssssscssscssssscccscccsssssscccccsscsssscccccccssssccccccccccssssssscccssssccccccccsscssssss" /><path
       style="opacity:1;fill:#ffffff;fill-rule:evenodd;stroke:#ffccaa;stroke-width:0;stroke-linecap:round;stroke-linejoin:bevel;paint-order:markers fill stroke"
       d="m 159.88526,146.61229 c 0,0 5.58448,-2.51695 5.58448,-2.51695 0,0 1.84839,-8.25874 1.84839,-8.25874 0,0 1.80906,8.29807 1.80906,8.29807 0,0 5.74179,2.4383 5.74179,2.4383 0,0 -5.74179,2.5956 -5.74179,2.5956 0,0 -1.76973,8.21941 -1.76973,8.21941 0,0 -1.80906,-8.25874 -1.80906,-8.25874 0,0 -5.66314,-2.51695 -5.66314,-2.51695 z"
       id="path439-7"
       inkscape:path-effect="#path-effect441-2"
       inkscape:original-d="m 159.88526,146.61229 c 0,0 5.58448,-2.51695 5.58448,-2.51695 0,0 1.84839,-8.25874 1.84839,-8.25874 0,0 1.80906,8.29807 1.80906,8.29807 0,0 5.74179,2.4383 5.74179,2.4383 0,0 -5.74179,2.5956 -5.74179,2.5956 0,0 -1.76973,8.21941 -1.76973,8.21941 0,0 -1.80906,-8.25874 -1.80906,-8.25874 0,0 -5.66314,-2.51695 -5.66314,-2.51695 z" /><path
       style="opacity:1;fill:#ffffff;fill-rule:evenodd;stroke:#ffccaa;stroke-width:0;stroke-linecap:round;stroke-linejoin:bevel;paint-order:markers fill stroke"
       d="m 183.16704,186.88348 c 0,0 5.58448,-2.51695 5.58448,-2.51695 0,0 1.84839,-8.25874 1.84839,-8.25874 0,0 1.80906,8.29806 1.80906,8.29806 0,0 5.74179,2.4383 5.74179,2.4383 0,0 -5.74179,2.5956 -5.74179,2.5956 0,0 -1.76973,8.21941 -1.76973,8.21941 0,0 -1.80906,-8.25873 -1.80906,-8.25873 0,0 -5.66314,-2.51695 -5.66314,-2.51695 z"
       id="path439-90"
       inkscape:path-effect="#path-effect441-37"
       inkscape:original-d="m 183.16704,186.88348 c 0,0 5.58448,-2.51695 5.58448,-2.51695 0,0 1.84839,-8.25874 1.84839,-8.25874 0,0 1.80906,8.29806 1.80906,8.29806 0,0 5.74179,2.4383 5.74179,2.4383 0,0 -5.74179,2.5956 -5.74179,2.5956 0,0 -1.76973,8.21941 -1.76973,8.21941 0,0 -1.80906,-8.25873 -1.80906,-8.25873 0,0 -5.66314,-2.51695 -5.66314,-2.51695 z" /><path
       style="opacity:1;fill:#f2f2f2;fill-rule:evenodd;stroke:#ffccaa;stroke-width:0;stroke-linecap:round;stroke-linejoin:bevel;paint-order:markers fill stroke"
       d="m 15,25.775689 c 0,0 5.584481,-2.51695 5.584481,-2.51695 0,0 1.848387,-8.258739 1.848387,-8.258739 0,0 1.809057,8.298067 1.809057,8.298067 0,0 5.741789,2.438294 5.741789,2.438294 0,0 -5.741789,2.595605 -5.741789,2.595605 0,0 -1.769732,8.21941 -1.769732,8.21941 0,0 -1.809057,-8.258738 -1.809057,-8.258738 0,0 -5.663136,-2.516949 -5.663136,-2.516949 z"
       id="path439"
       inkscape:path-effect="#path-effect441"
       inkscape:original-d="m 15,25.775689 c 0,0 5.584481,-2.51695 5.584481,-2.51695 0,0 1.848387,-8.258739 1.848387,-8.258739 0,0 1.809057,8.298067 1.809057,8.298067 0,0 5.741789,2.438294 5.741789,2.438294 0,0 -5.741789,2.595605 -5.741789,2.595605 0,0 -1.769732,8.21941 -1.769732,8.21941 0,0 -1.809057,-8.258738 -1.809057,-8.258738 0,0 -5.663136,-2.516949 -5.663136,-2.516949 z" /><path
       style="opacity:1;fill:#ffffff;fill-rule:evenodd;stroke:#ffccaa;stroke-width:0;stroke-linecap:round;stroke-linejoin:bevel;paint-order:markers fill stroke"
       d="m 22.441168,89.131475 c 0,0 5.584481,-2.51695 5.584481,-2.51695 0,0 1.848387,-8.258739 1.848387,-8.258739 0,0 1.809057,8.298067 1.809057,8.298067 0,0 5.741789,2.438294 5.741789,2.438294 0,0 -5.741789,2.595605 -5.741789,2.595605 0,0 -1.769732,8.21941 -1.769732,8.21941 0,0 -1.809057,-8.258738 -1.809057,-8.258738 0,0 -5.663136,-2.516949 -5.663136,-2.516949 z"
       id="path439-2"
       inkscape:path-effect="#path-effect441-0"
       inkscape:original-d="m 22.441168,89.131475 c 0,0 5.584481,-2.51695 5.584481,-2.51695 0,0 1.848387,-8.258739 1.848387,-8.258739 0,0 1.809057,8.298067 1.809057,8.298067 0,0 5.741789,2.438294 5.741789,2.438294 0,0 -5.741789,2.595605 -5.741789,2.595605 0,0 -1.769732,8.21941 -1.769732,8.21941 0,0 -1.809057,-8.258738 -1.809057,-8.258738 0,0 -5.663136,-2.516949 -5.663136,-2.516949 z" /><path
       style="opacity:1;fill:#ffffff;fill-rule:evenodd;stroke:#ffccaa;stroke-width:0;stroke-linecap:round;stroke-linejoin:bevel;paint-order:markers fill stroke"
       d="m 54.347969,140.54463 c 0,0 5.584481,-2.51695 5.584481,-2.51695 0,0 1.848387,-8.25874 1.848387,-8.25874 0,0 1.809057,8.29807 1.809057,8.29807 0,0 5.741789,2.43829 5.741789,2.43829 0,0 -5.741789,2.5956 -5.741789,2.5956 0,0 -1.769732,8.21941 -1.769732,8.21941 0,0 -1.809057,-8.25873 -1.809057,-8.25873 0,0 -5.663136,-2.51695 -5.663136,-2.51695 z"
       id="path439-8"
       inkscape:path-effect="#path-effect441-4"
       inkscape:original-d="m 54.347969,140.54463 c 0,0 5.584481,-2.51695 5.584481,-2.51695 0,0 1.848387,-8.25874 1.848387,-8.25874 0,0 1.809057,8.29807 1.809057,8.29807 0,0 5.741789,2.43829 5.741789,2.43829 0,0 -5.741789,2.5956 -5.741789,2.5956 0,0 -1.769732,8.21941 -1.769732,8.21941 0,0 -1.809057,-8.25873 -1.809057,-8.25873 0,0 -5.663136,-2.51695 -5.663136,-2.51695 z" /><path
       style="opacity:1;fill:#ffffff;fill-rule:evenodd;stroke:#ffccaa;stroke-width:0;stroke-linecap:round;stroke-linejoin:bevel;paint-order:markers fill stroke"
       d="m 180,25.775689 c 0,0 5.58448,-2.51695 5.58448,-2.51695 0,0 1.84839,-8.258739 1.84839,-8.258739 0,0 1.80906,8.298069 1.80906,8.298069 0,0 5.74179,2.43829 5.74179,2.43829 0,0 -5.74179,2.59561 -5.74179,2.59561 0,0 -1.76973,8.21941 -1.76973,8.21941 0,0 -1.80906,-8.25874 -1.80906,-8.25874 0,0 -5.66314,-2.51695 -5.66314,-2.51695 z"
       id="path439-99"
       inkscape:path-effect="#path-effect441-23"
       inkscape:original-d="m 180,25.775689 c 0,0 5.58448,-2.51695 5.58448,-2.51695 0,0 1.84839,-8.258739 1.84839,-8.258739 0,0 1.80906,8.298069 1.80906,8.298069 0,0 5.74179,2.43829 5.74179,2.43829 0,0 -5.74179,2.59561 -5.74179,2.59561 0,0 -1.76973,8.21941 -1.76973,8.21941 0,0 -1.80906,-8.25874 -1.80906,-8.25874 0,0 -5.66314,-2.51695 -5.66314,-2.51695 z" /><path
       style="opacity:1;fill:#ffffff;fill-rule:evenodd;stroke:#ffccaa;stroke-width:0;stroke-linecap:round;stroke-linejoin:bevel;paint-order:markers fill stroke"
       d="m 179.39162,97.53178 c 0,0 5.58448,-2.51695 5.58448,-2.51695 0,0 1.8484,-8.25874 1.8484,-8.25874 0,0 1.80905,8.29807 1.80905,8.29807 0,0 5.74179,2.43829 5.74179,2.43829 0,0 -5.74179,2.59561 -5.74179,2.59561 0,0 -1.76973,8.21941 -1.76973,8.21941 0,0 -1.80906,-8.25874 -1.80906,-8.25874 0,0 -5.66314,-2.51695 -5.66314,-2.51695 z"
       id="path439-86"
       inkscape:path-effect="#path-effect441-39"
       inkscape:original-d="m 179.39162,97.53178 c 0,0 5.58448,-2.51695 5.58448,-2.51695 0,0 1.8484,-8.25874 1.8484,-8.25874 0,0 1.80905,8.29807 1.80905,8.29807 0,0 5.74179,2.43829 5.74179,2.43829 0,0 -5.74179,2.59561 -5.74179,2.59561 0,0 -1.76973,8.21941 -1.76973,8.21941 0,0 -1.80906,-8.25874 -1.80906,-8.25874 0,0 -5.66314,-2.51695 -5.66314,-2.51695 z" /><path
       style="opacity:1;fill:#ffffff;fill-rule:evenodd;stroke:#ffccaa;stroke-width:0;stroke-linecap:round;stroke-linejoin:bevel;paint-order:markers fill stroke"
       d="m 27.557954,190.6677 c 0,0 5.584481,-2.51695 5.584481,-2.51695 0,0 1.848387,-8.25874 1.848387,-8.25874 0,0 1.809057,8.29806 1.809057,8.29806 0,0 5.741789,2.4383 5.741789,2.4383 0,0 -5.741789,2.5956 -5.741789,2.5956 0,0 -1.769732,8.21941 -1.769732,8.21941 0,0 -1.809057,-8.25873 -1.809057,-8.25873 0,0 -5.663136,-2.51695 -5.663136,-2.51695 z"
       id="path439-9"
       inkscape:path-effect="#path-effect441-3"
       inkscape:original-d="m 27.557954,190.6677 c 0,0 5.584481,-2.51695 5.584481,-2.51695 0,0 1.848387,-8.25874 1.848387,-8.25874 0,0 1.809057,8.29806 1.809057,8.29806 0,0 5.741789,2.4383 5.741789,2.4383 0,0 -5.741789,2.5956 -5.741789,2.5956 0,0 -1.769732,8.21941 -1.769732,8.21941 0,0 -1.809057,-8.25873 -1.809057,-8.25873 0,0 -5.663136,-2.51695 -5.663136,-2.51695 z" /></g></svg>
